[Header]
FileType HTR
DataType HTRS
FileVersion 1
NumSegments 64
NumFrames 4
DataFrameRate 30
EulerRotationOrder ZYX
CalibrationUnits mm
RotationUnits Degrees
GlobalAxisofGravity Y
BoneLengthAxis Y
ScaleFactor 1.0
[SegmentNames&Hierarchy]
Hips	GLOBAL
Spine	Hips
Spine1	Spine
Spine2	Spine1
Neck	Spine2
Head	Neck
LeftEye	Head
RightEye	Head
LeftShoulder	Spine2
LeftArm	LeftShoulder
LeftForeArm	LeftArm
LeftHand	LeftForeArm
LeftHandThumb1	LeftHand
LeftHandThumb2	LeftHandThumb1
LeftHandThumb3	LeftHandThumb2
LeftHandThumb4	LeftHandThumb3
LeftHandIndex1	LeftHand
LeftHandIndex2	LeftHandIndex1
LeftHandIndex3	LeftHandIndex2
LeftHandIndex4	LeftHandIndex3
LeftHandMiddle1	LeftHand
LeftHandMiddle2	LeftHandMiddle1
LeftHandMiddle3	LeftHandMiddle2
LeftHandMiddle4	LeftHandMiddle3
LeftHandRing1	LeftHand
LeftHandRing2	LeftHandRing1
LeftHandRing3	LeftHandRing2
LeftHandRing4	LeftHandRing3
LeftHandPinky1	LeftHand
LeftHandPinky2	LeftHandPinky1
LeftHandPinky3	LeftHandPinky2
LeftHandPinky4	LeftHandPinky3
RightShoulder	Spine2
RightArm	RightShoulder
RightForeArm	RightArm
RightHand	RightForeArm
RightHandPinky1	RightHand
RightHandPinky2	RightHandPinky1
RightHandPinky3	RightHandPinky2
RightHandPinky4	RightHandPinky3
RightHandRing1	RightHand
RightHandRing2	RightHandRing1
RightHandRing3	RightHandRing2
RightHandRing4	RightHandRing3
RightHandMiddle1	RightHand
RightHandMiddle2	RightHandMiddle1
RightHandMiddle3	RightHandMiddle2
RightHandMiddle4	RightHandMiddle3
RightHandIndex1	RightHand
RightHandIndex2	RightHandIndex1
RightHandIndex3	RightHandIndex2
RightHandIndex4	RightHandIndex3
RightHandThumb1	RightHand
RightHandThumb2	RightHandThumb1
RightHandThumb3	RightHandThumb2
RightHandThumb4	RightHandThumb3
LeftUpLeg	Hips
LeftLeg	LeftUpLeg
LeftFoot	LeftLeg
LeftToeBase	LeftFoot
RightUpLeg	Hips
RightLeg	RightUpLeg
RightFoot	RightLeg
RightToeBase	RightFoot
[BasePosition]
Hips	0	0	0	0	0	0	1
Spine	0	0	0	0	0	0	1
Spine1	0	0	0	0	0	0	1
Spine2	0	0	0	0	0	0	1
Neck	0	0	0	0	0	0	1
Head	0	0	0	0	0	0	1
LeftEye	0	0	0	0	0	0	1
RightEye	0	0	0	0	0	0	1
LeftShoulder	0	0	0	0	0	0	1
LeftArm	0	0	0	0	0	0	1
LeftForeArm	0	0	0	0	0	0	1
LeftHand	0	0	0	0	0	0	1
LeftHandThumb1	0	0	0	0	0	0	1
LeftHandThumb2	0	0	0	0	0	0	1
LeftHandThumb3	0	0	0	0	0	0	1
LeftHandThumb4	0	0	0	0	0	0	1
LeftHandIndex1	0	0	0	0	0	0	1
LeftHandIndex2	0	0	0	0	0	0	1
LeftHandIndex3	0	0	0	0	0	0	1
LeftHandIndex4	0	0	0	0	0	0	1
LeftHandMiddle1	0	0	0	0	0	0	1
LeftHandMiddle2	0	0	0	0	0	0	1
LeftHandMiddle3	0	0	0	0	0	0	1
LeftHandMiddle4	0	0	0	0	0	0	1
LeftHandRing1	0	0	0	0	0	0	1
LeftHandRing2	0	0	0	0	0	0	1
LeftHandRing3	0	0	0	0	0	0	1
LeftHandRing4	0	0	0	0	0	0	1
LeftHandPinky1	0	0	0	0	0	0	1
LeftHandPinky2	0	0	0	0	0	0	1
LeftHandPinky3	0	0	0	0	0	0	1
LeftHandPinky4	0	0	0	0	0	0	1
RightShoulder	0	0	0	0	0	0	1
RightArm	0	0	0	0	0	0	1
RightForeArm	0	0	0	0	0	0	1
RightHand	0	0	0	0	0	0	1
RightHandPinky1	0	0	0	0	0	0	1
RightHandPinky2	0	0	0	0	0	0	1
RightHandPinky3	0	0	0	0	0	0	1
RightHandPinky4	0	0	0	0	0	0	1
RightHandRing1	0	0	0	0	0	0	1
RightHandRing2	0	0	0	0	0	0	1
RightHandRing3	0	0	0	0	0	0	1
RightHandRing4	0	0	0	0	0	0	1
RightHandMiddle1	0	0	0	0	0	0	1
RightHandMiddle2	0	0	0	0	0	0	1
RightHandMiddle3	0	0	0	0	0	0	1
RightHandMiddle4	0	0	0	0	0	0	1
RightHandIndex1	0	0	0	0	0	0	1
RightHandIndex2	0	0	0	0	0	0	1
RightHandIndex3	0	0	0	0	0	0	1
RightHandIndex4	0	0	0	0	0	0	1
RightHandThumb1	0	0	0	0	0	0	1
RightHandThumb2	0	0	0	0	0	0	1
RightHandThumb3	0	0	0	0	0	0	1
RightHandThumb4	0	0	0	0	0	0	1
LeftUpLeg	0	0	0	0	0	0	1
LeftLeg	0	0	0	0	0	0	1
LeftFoot	0	0	0	0	0	0	1
LeftToeBase	0	0	0	0	0	0	1
RightUpLeg	0	0	0	0	0	0	1
RightLeg	0	0	0	0	0	0	1
RightFoot	0	0	0	0	0	0	1
RightToeBase	0	0	0	0	0	0	1
[Hips]
20 	-4.332559109	982.2662354	12.28970623	-14.93243027	2.201102018	-6.125550747	1.0
21 	-5.784440517	978.2022095	14.68477249	-15.63593769	2.715680599	-6.388252735	1.0
22 	-7.516446114	976.3741455	17.36641502	-16.1700573	3.304860592	-6.705215931	1.0
23 	-9.467131615	976.3641968	20.10143661	-16.56863785	3.899166346	-7.042716026	1.0
[Spine]
20 	0	101.8159943	1.315000057	2.203063011	2.02899909	1.909069538	1.0
21 	0	101.8159943	1.315000057	1.897673726	2.064233541	1.781932354	1.0
22 	0	101.8159943	1.315000057	1.55107367	2.082448483	1.64140439	1.0
23 	0	101.8159943	1.315000057	1.162078261	2.096660137	1.481128454	1.0
[Spine1]
20 	0	100.8349991	-10.00800037	0.6907317638	1.36455977	0.5717521906	1.0
21 	0	100.8349991	-10.00800037	0.625982523	1.442981362	0.5044116974	1.0
22 	0	100.8349991	-10.00800037	0.5303274989	1.497897148	0.417620331	1.0
23 	0	100.8349991	-10.00800037	0.3991139233	1.547311187	0.2975437641	1.0
[Spine2]
20 	0	91	-13.73399925	0.6737760305	1.386629343	0.5613933206	1.0
21 	0	91	-13.73399925	0.6113287807	1.462398529	0.4879417419	1.0
22 	0	91	-13.73399925	0.5181160569	1.514323831	0.3945110142	1.0
23 	0	91	-13.73399925	0.3894544542	1.560595036	0.2676829994	1.0
[Neck]
20 	0	166.7169952	-25.16200066	13.96034241	-1.475801945	2.089671612	1.0
21 	0	166.7169952	-25.16200066	13.87851906	-1.483747125	1.862840533	1.0
22 	0	166.7169952	-25.16200066	13.60188484	-1.534119487	1.749209166	1.0
23 	0	166.7169952	-25.16200066	13.13935471	-1.656263947	1.749651313	1.0
[Head]
20 	0	96.17900085	16.84999847	14.871315	-4.665385246	4.813852787	1.0
21 	0	96.17900085	16.84999847	14.10291862	-4.589476585	3.931116104	1.0
22 	0	96.17900085	16.84999847	12.46520138	-4.676126003	3.401928663	1.0
23 	0	96.17900085	16.84999847	10.68037987	-5.140825748	3.391775846	1.0
[LeftEye]
20 	30.6760006	64.09500122	92.83599854	0	0	0	1.0
21 	30.6760006	64.09500122	92.83599854	0	0	0	1.0
22 	30.6760006	64.09500122	92.83599854	0	0	0	1.0
23 	30.6760006	64.09500122	92.83599854	0	0	0	1.0
[RightEye]
20 	-30.6760006	64.09500122	92.83499908	0	0	0	1.0
21 	-30.6760006	64.09500122	92.83499908	0	0	0	1.0
22 	-30.6760006	64.09500122	92.83499908	0	0	0	1.0
23 	-30.6760006	64.09500122	92.83499908	0	0	0	1.0
[LeftShoulder]
20 	45.70400238	109.4599991	-26.28000069	4.041789532	-13.68652248	-12.48306179	1.0
21 	45.70400238	109.4599991	-26.28000069	4.07465744	-13.79556751	-12.53128433	1.0
22 	45.70400238	109.4599991	-26.28000069	4.066600323	-13.7872715	-12.48818111	1.0
23 	45.70400238	109.4599991	-26.28000069	4.02614069	-13.63548374	-12.45445251	1.0
[LeftArm]
20 	105.923996	-5.24600029	-22.32099915	-19.87866592	-6.199644089	-62.33201981	1.0
21 	105.923996	-5.24600029	-22.32099915	-23.01115417	-6.122520924	-61.09580231	1.0
22 	105.923996	-5.24600029	-22.32099915	-25.23940659	-5.838376999	-59.90091324	1.0
23 	105.923996	-5.24600029	-22.32099915	-27.11520195	-5.521722317	-58.68997192	1.0
[LeftForeArm]
20 	278.414978	-0.0009999999311	0	3.714005743e-06	-6.510772228	-0.0002123690356	1.0
21 	278.414978	-0.0009999999311	0	-2.561590009e-06	-6.882239819	-0.0001916498295	1.0
22 	278.414978	-0.0009999999311	0	-7.168214324e-07	-7.613745213	-0.0002048568713	1.0
23 	278.414978	-0.0009999999311	0	1.523979449e-06	-8.426795959	-0.0001895962923	1.0
[LeftHand]
20 	283.2879944	0	0	-66.42366028	-11.81290531	2.042553902	1.0
21 	283.2879944	0	0	-68.00652313	-10.88202667	3.861555099	1.0
22 	283.2879944	0	0	-67.81362915	-11.05809975	4.323092461	1.0
23 	283.2879944	0	0	-67.38693237	-11.74140644	4.091180325	1.0
[LeftHandThumb1]
20 	24.6609993	-15.75	26.8239994	-28.09191132	-9.229482651	17.99664307	1.0
21 	24.6609993	-15.75	26.8239994	-28.16302299	-9.648777962	17.36530685	1.0
22 	24.6609993	-15.75	26.8239994	-27.98392296	-9.567442894	17.20672417	1.0
23 	24.6609993	-15.75	26.8239994	-27.81270599	-9.192864418	17.69309807	1.0
[LeftHandThumb2]
20 	32.29800034	-18.64699936	18.64699936	19.52832794	25.01019859	10.27910519	1.0
21 	32.29800034	-18.64699936	18.64699936	19.48070908	25.19433975	9.663187981	1.0
22 	32.29800034	-18.64699936	18.64699936	19.48825264	25.1648407	9.763176918	1.0
23 	32.29800034	-18.64699936	18.64699936	19.52928734	25.00498199	10.29981518	1.0
[LeftHandThumb3]
20 	26.52600098	-15.31499958	15.31499958	-8.890900612	-2.389287233	-2.743114471	1.0
21 	26.52600098	-15.31499958	15.31499958	-8.735855103	-2.717199326	-3.095136881	1.0
22 	26.52600098	-15.31499958	15.31499958	-8.743484497	-2.707636595	-3.060282946	1.0
23 	26.52600098	-15.31499958	15.31499958	-8.827446938	-2.501824379	-2.941640377	1.0
[LeftHandThumb4]
20 	19.54599953	-11.28499985	11.28499985	0	0	0	1.0
21 	19.54599953	-11.28499985	11.28499985	0	0	0	1.0
22 	19.54599953	-11.28499985	11.28499985	0	0	0	1.0
23 	19.54599953	-11.28499985	11.28499985	0	0	0	1.0
[LeftHandIndex1]
20 	91.09299469	-5.170999527	22.60099792	0.9383583665	-3.963160992	19.56065559	1.0
21 	91.09299469	-5.170999527	22.60099792	0.9114893079	-4.321433067	21.39162827	1.0
22 	91.09299469	-5.170999527	22.60099792	0.9138960242	-4.345867157	21.71194077	1.0
23 	91.09299469	-5.170999527	22.60099792	0.9425617456	-4.149974346	21.23055077	1.0
[LeftHandIndex2]
20 	36.76399994	0	0	-0.197887361	1.507876515	-14.95260715	1.0
21 	36.76399994	0	0	-0.1933740824	1.490865111	-14.78016853	1.0
22 	36.76399994	0	0	-0.1918588132	1.485150933	-14.72197151	1.0
23 	36.76399994	0	0	-0.1914278418	1.483439445	-14.70467567	1.0
[LeftHandIndex3]
20 	28.83100128	0	0	-0.02805621177	0.5719378591	-5.615127087	1.0
21 	28.83100128	0	0	-0.02635888569	0.5545326471	-5.443791866	1.0
22 	28.83100128	0	0	-0.02580051683	0.5485506058	-5.38501358	1.0
23 	28.83100128	0	0	-0.02563258074	0.5467757583	-5.367584705	1.0
[LeftHandIndex4]
20 	23.92700005	0	0	0	0	0	1.0
21 	23.92700005	0	0	0	0	0	1.0
22 	23.92700005	0	0	0	0	0	1.0
23 	23.92700005	0	0	0	0	0	1.0
[LeftHandMiddle1]
20 	95.33399963	0	0	0.2862456441	-1.322928786	5.977338791	1.0
21 	95.33399963	0	0	0.3460712433	-1.876329303	8.015673637	1.0
22 	95.33399963	0	0	0.3634707034	-1.98561883	8.680311203	1.0
23 	95.33399963	0	0	0.3534051776	-1.799454451	8.322118759	1.0
[LeftHandMiddle2]
20 	36.98199844	0	0	-0.2480215877	1.684309363	-16.75189209	1.0
21 	36.98199844	0	0	-0.2444633543	1.672419071	-16.63015556	1.0
22 	36.98199844	0	0	-0.2427970022	1.666839957	-16.57329178	1.0
23 	36.98199844	0	0	-0.2425607294	1.666107893	-16.56541824	1.0
[LeftHandMiddle3]
20 	29.50900078	0	0	-0.2793188095	1.784974456	-17.78611755	1.0
21 	29.50900078	0	0	-0.2757182121	1.773743987	-17.67045021	1.0
22 	29.50900078	0	0	-0.2739849389	1.768318534	-17.6143837	1.0
23 	29.50900078	0	0	-0.2737235129	1.767447472	-17.6054554	1.0
[LeftHandMiddle4]
20 	28.3390007	0	0	0	0	0	1.0
21 	28.3390007	0	0	0	0	0	1.0
22 	28.3390007	0	0	0	0	0	1.0
23 	28.3390007	0	0	0	0	0	1.0
[LeftHandRing1]
20 	91.04499817	-0.4390000105	-18.65100098	-1.076469779	3.591220617	-19.70570755	1.0
21 	91.04499817	-0.4390000105	-18.65100098	-0.9906596541	3.321240187	-18.52554512	1.0
22 	91.04499817	-0.4390000105	-18.65100098	-0.9715896249	3.267134428	-18.25940704	1.0
23 	91.04499817	-0.4390000105	-18.65100098	-1.012209773	3.436345339	-18.82379532	1.0
[LeftHandRing2]
20 	31.54000092	0	0	-0.6422275305	2.662527323	-27.117733	1.0
21 	31.54000092	0	0	-0.6342331171	2.646881819	-26.94514656	1.0
22 	31.54000092	0	0	-0.6323916912	2.643248081	-26.90525436	1.0
23 	31.54000092	0	0	-0.635702908	2.649755716	-26.97703362	1.0
[LeftHandRing3]
20 	29.37700081	0	0	-0.5073878169	2.381201744	-24.05430603	1.0
21 	29.37700081	0	0	-0.5005779862	2.36591506	-23.8900528	1.0
22 	29.37700081	0	0	-0.4990056157	2.362357855	-23.8516655	1.0
23 	29.37700081	0	0	-0.5017259121	2.368490934	-23.91748238	1.0
[LeftHandRing4]
20 	26.47500038	0	0	0	0	0	1.0
21 	26.47500038	0	0	0	0	0	1.0
22 	26.47500038	0	0	0	0	0	1.0
23 	26.47500038	0	0	0	0	0	1.0
[LeftHandPinky1]
20 	80.77799988	-4.887000084	-38.06099701	-1.427380443	5.395317078	-23.64916229	1.0
21 	80.77799988	-4.887000084	-38.06099701	-1.393592119	5.180314064	-23.21827507	1.0
22 	80.77799988	-4.887000084	-38.06099701	-1.39321506	5.100959301	-23.19357109	1.0
23 	80.77799988	-4.887000084	-38.06099701	-1.413395762	5.189781666	-23.42547607	1.0
[LeftHandPinky2]
20 	36	0	0	-0.2722381055	1.762740731	-17.55734062	1.0
21 	36	0	0	-0.270639807	1.757686496	-17.50519753	1.0
22 	36	0	0	-0.2709984481	1.758808613	-17.51667023	1.0
23 	36	0	0	-0.2725031376	1.763607144	-17.56585693	1.0
[LeftHandPinky3]
20 	21.14200211	0	0	-0.2449135929	1.673971057	-16.64588547	1.0
21 	21.14200211	0	0	-0.2435558736	1.669430852	-16.59942245	1.0
22 	21.14200211	0	0	-0.2439828962	1.67087543	-16.61431122	1.0
23 	21.14200211	0	0	-0.2453508377	1.675455332	-16.66124725	1.0
[LeftHandPinky4]
20 	19.75699997	0	0	0	0	0	1.0
21 	19.75699997	0	0	0	0	0	1.0
22 	19.75699997	0	0	0	0	0	1.0
23 	19.75699997	0	0	0	0	0	1.0
[RightShoulder]
20 	-45.70000076	109.4620056	-26.28000069	4.583484173	12.01595306	16.43065262	1.0
21 	-45.70000076	109.4620056	-26.28000069	4.552986622	11.93270969	16.29910851	1.0
22 	-45.70000076	109.4620056	-26.28000069	4.517724514	11.83178234	16.16613197	1.0
23 	-45.70000076	109.4620056	-26.28000069	4.494247437	11.74985218	16.14216995	1.0
[RightArm]
20 	-105.9280014	-5.248000145	-22.32099915	-11.83612347	2.425595522	59.17877579	1.0
21 	-105.9280014	-5.248000145	-22.32099915	-14.9953413	2.162901163	58.55834198	1.0
22 	-105.9280014	-5.248000145	-22.32099915	-16.5164032	1.531699419	57.72136688	1.0
23 	-105.9280014	-5.248000145	-22.32099915	-17.22815514	0.8250861168	56.75621033	1.0
[RightForeArm]
20 	-278.414978	0	0	4.278059805e-06	5.958683014	-1.085641998e-05	1.0
21 	-278.414978	0	0	-9.427595842e-07	6.117873192	-1.189766135e-05	1.0
22 	-278.414978	0	0	3.006393172e-06	6.95412302	-1.785753193e-05	1.0
23 	-278.414978	0	0	2.128270324e-07	7.771321774	-1.73491153e-05	1.0
[RightHand]
20 	-283.2879944	0	0.0009999999311	-54.10915375	10.15454769	-6.325781345	1.0
21 	-283.2879944	0	0.0009999999311	-56.04853821	9.79188633	-7.318581581	1.0
22 	-283.2879944	0	0.0009999999311	-55.93345642	10.8466444	-6.952032089	1.0
23 	-283.2879944	0	0.0009999999311	-54.97499466	12.21101761	-6.434504509	1.0
[RightHandPinky1]
20 	-80.76699829	-4.885000229	-38.06000137	-4.389415264	-2.691549301	57.38856125	1.0
21 	-80.76699829	-4.885000229	-38.06000137	-4.304812908	-2.947789431	56.76890945	1.0
22 	-80.76699829	-4.885000229	-38.06000137	-4.300561905	-3.001869202	56.8117981	1.0
23 	-80.76699829	-4.885000229	-38.06000137	-4.301999092	-2.950690508	56.86039734	1.0
[RightHandPinky2]
20 	-36	0	0.0009999999311	-0.3828920722	-1.845420003	23.46063805	1.0
21 	-36	0	0.0009999999311	-0.3818764687	-1.843097806	23.42938995	1.0
22 	-36	0	0.0009999999311	-0.3791902065	-1.836884737	23.34559822	1.0
23 	-36	0	0.0009999999311	-0.3803156018	-1.839465857	23.38043404	1.0
[RightHandPinky3]
20 	-21.14200211	0	0	-0.351655066	-1.771694303	22.45140839	1.0
21 	-21.14200211	0	0	-0.3510780334	-1.770272374	22.43244362	1.0
22 	-21.14200211	0	0	-0.3485793471	-1.764211059	22.35155487	1.0
23 	-21.14200211	0	0	-0.3495801091	-1.766662598	22.384161	1.0
[RightHandPinky4]
20 	-19.75699997	0	0	0	0	0	1.0
21 	-19.75699997	0	0	0	0	0	1.0
22 	-19.75699997	0	0	0	0	0	1.0
23 	-19.75699997	0	0	0	0	0	1.0
[RightHandRing1]
20 	-91.03599548	-0.4390000105	-18.65100098	-2.864929438	1.854229331	44.34082413	1.0
21 	-91.03599548	-0.4390000105	-18.65100098	-2.824543953	1.657570243	43.86153412	1.0
22 	-91.03599548	-0.4390000105	-18.65100098	-2.823067427	1.616397381	43.84250259	1.0
23 	-91.03599548	-0.4390000105	-18.65100098	-2.827712297	1.675270557	43.89928055	1.0
[RightHandRing2]
20 	-31.54000092	0	0	-0.4316413403	-1.953964353	24.91166115	1.0
21 	-31.54000092	0	0	-0.4254018664	-1.940477848	24.72796059	1.0
22 	-31.54000092	0	0	-0.4208447635	-1.930563569	24.59303856	1.0
23 	-31.54000092	0	0	-0.4199159741	-1.92850554	24.5650177	1.0
[RightHandRing3]
20 	-29.37700081	0	0	-0.334710896	-1.730142951	21.89685822	1.0
21 	-29.37700081	0	0	-0.3291389048	-1.716216683	21.71166801	1.0
22 	-29.37700081	0	0	-0.3251008391	-1.706026196	21.5761528	1.0
23 	-29.37700081	0	0	-0.3242495954	-1.703897119	21.54787064	1.0
[RightHandRing4]
20 	-26.47500038	0	0	0	0	0	1.0
21 	-26.47500038	0	0	0	0	0	1.0
22 	-26.47500038	0	0	0	0	0	1.0
23 	-26.47500038	0	0	0	0	0	1.0
[RightHandMiddle1]
20 	-95.32500458	0	0	-0.6318573952	-1.285915494	13.85476971	1.0
21 	-95.32500458	0	0	-0.6070955992	-1.261662006	13.427351	1.0
22 	-95.32500458	0	0	-0.6165071726	-1.245936394	13.59138489	1.0
23 	-95.32500458	0	0	-0.6223310232	-1.265633821	13.69124413	1.0
[RightHandMiddle2]
20 	-36.98199844	0	0	-0.1486447603	-1.165016532	14.54173851	1.0
21 	-36.98199844	0	0	-0.1433754116	-1.144528627	14.28015041	1.0
22 	-36.98199844	0	0	-0.1413957477	-1.136751533	14.18116951	1.0
23 	-36.98199844	0	0	-0.1411857605	-1.135867119	14.16993427	1.0
[RightHandMiddle3]
20 	-29.50900078	0	0	-0.1699940413	-1.246407747	15.55671215	1.0
21 	-29.50900078	0	0	-0.1643524319	-1.225977063	15.29501438	1.0
22 	-29.50900078	0	0	-0.1622590125	-1.218284488	15.19633007	1.0
23 	-29.50900078	0	0	-0.162009716	-1.217393398	15.18501091	1.0
[RightHandMiddle4]
20 	-28.3390007	0	0.0009999999311	0	0	0	1.0
21 	-28.3390007	0	0.0009999999311	0	0	0	1.0
22 	-28.3390007	0	0.0009999999311	0	0	0	1.0
23 	-28.3390007	0	0.0009999999311	0	0	0	1.0
[RightHandIndex1]
20 	-91.08300018	-5.167999744	22.60099792	1.466841221	-0.5898624063	-13.53237057	1.0
21 	-91.08300018	-5.167999744	22.60099792	1.467107177	-0.5050219893	-13.94910908	1.0
22 	-91.08300018	-5.167999744	22.60099792	1.441549778	-0.4112174511	-13.64261532	1.0
23 	-91.08300018	-5.167999744	22.60099792	1.434448242	-0.4045942426	-13.4655695	1.0
[RightHandIndex2]
20 	-36.76399994	0	0	-0.08372033387	-0.8774659038	10.90017128	1.0
21 	-36.76399994	0	0	-0.08030753583	-0.8594842553	10.67416763	1.0
22 	-36.76399994	0	0	-0.07890835404	-0.8520361185	10.58067799	1.0
23 	-36.76399994	0	0	-0.07906553149	-0.8530419469	10.59302616	1.0
[RightHandIndex3]
20 	-28.83100128	0	0	-0.001586935134	-0.1216649115	1.502190709	1.0
21 	-28.83100128	0	0	-0.001145141199	-0.1034428403	1.277226806	1.0
22 	-28.83100128	0	0	-0.0009904610924	-0.09606525302	1.186155319	1.0
23 	-28.83100128	0	0	-0.001021787408	-0.0970877409	1.198868632	1.0
[RightHandIndex4]
20 	-23.92700005	0	0	0	0	0	1.0
21 	-23.92700005	0	0	0	0	0	1.0
22 	-23.92700005	0	0	0	0	0	1.0
23 	-23.92700005	0	0	0	0	0	1.0
[RightHandThumb1]
20 	-24.64799881	-15.72700024	26.82600021	-23.42905998	27.88879395	-7.46721983	1.0
21 	-24.64799881	-15.72700024	26.82600021	-22.19063187	29.33154297	-6.584118366	1.0
22 	-24.64799881	-15.72700024	26.82600021	-21.47659492	30.25878143	-5.914381981	1.0
23 	-24.64799881	-15.72700024	26.82600021	-21.48492241	30.27655411	-5.881267071	1.0
[RightHandThumb2]
20 	-32.29800034	-18.64699936	18.64699936	20.35032463	-28.63215828	-6.068116665	1.0
21 	-32.29800034	-18.64699936	18.64699936	20.35203552	-28.62131119	-6.093855858	1.0
22 	-32.29800034	-18.64699936	18.64699936	20.35621071	-28.60883713	-6.131174088	1.0
23 	-32.29800034	-18.64699936	18.64699936	20.35428619	-28.60871506	-6.120966434	1.0
[RightHandThumb3]
20 	-26.52600098	-15.31399918	15.31399918	-6.680972099	4.54984045	13.31574345	1.0
21 	-26.52600098	-15.31399918	15.31399918	-6.668852329	4.556605816	13.37707329	1.0
22 	-26.52600098	-15.31399918	15.31399918	-6.668283463	4.553629875	13.35267925	1.0
23 	-26.52600098	-15.31399918	15.31399918	-6.672550201	4.553719044	13.31944656	1.0
[RightHandThumb4]
20 	-19.54599953	-11.28499985	11.28499985	0	0	0	1.0
21 	-19.54599953	-11.28499985	11.28499985	0	0	0	1.0
22 	-19.54599953	-11.28499985	11.28499985	0	0	0	1.0
23 	-19.54599953	-11.28499985	11.28499985	0	0	0	1.0
[LeftUpLeg]
20 	82.07800293	-67.51699829	-15.99599934	-12.3107338	17.61285591	12.61206532	1.0
21 	82.07800293	-67.51699829	-15.99599934	-12.4200983	17.32271957	12.84370995	1.0
22 	82.07800293	-67.51699829	-15.99599934	-12.3357687	17.04907417	13.10684967	1.0
23 	82.07800293	-67.51699829	-15.99599934	-12.07493782	16.83981323	13.42664146	1.0
[LeftLeg]
20 	0	-443.7049866	2.845999956	39.36981583	-5.879951954	3.76512146	1.0
21 	0	-443.7049866	2.845999956	40.81121826	-6.328123569	4.05547905	1.0
22 	0	-443.7049866	2.845999956	41.50044632	-6.706376076	4.387132168	1.0
23 	0	-443.7049866	2.845999956	41.58188248	-6.965300083	4.717644691	1.0
[LeftFoot]
20 	0	-444.2789917	-29.8219986	-12.72766495	-5.968610287	-7.214801311	1.0
21 	0	-444.2789917	-29.8219986	-13.55723572	-6.247466564	-7.288279533	1.0
22 	0	-444.2789917	-29.8219986	-14.06929016	-6.604389191	-7.475800991	1.0
23 	0	-444.2789917	-29.8219986	-14.34843636	-7.055356503	-7.709164143	1.0
[LeftToeBase]
20 	0	-87.28699493	107.1060028	-5.35284853	-8.40660141e-06	2.076171484e-07	1.0
21 	0	-87.28699493	107.1060028	-5.396631718	5.785410849e-06	-2.016106691e-06	1.0
22 	0	-87.28699493	107.1060028	-5.459795475	-7.566369277e-06	1.900213391e-07	1.0
23 	0	-87.28699493	107.1060028	-5.543519497	4.368994723e-06	1.055757295e-07	1.0
[RightUpLeg]
20 	-82.07800293	-67.51699829	-15.99599934	-0.8961455822	-12.25760174	3.706584692	1.0
21 	-82.07800293	-67.51699829	-15.99599934	-0.6316126585	-12.17616558	4.039351463	1.0
22 	-82.07800293	-67.51699829	-15.99599934	-0.1227635592	-12.17309475	4.475308895	1.0
23 	-82.07800293	-67.51699829	-15.99599934	0.5543832779	-12.22953987	4.977048874	1.0
[RightLeg]
20 	0	-443.7049866	2.861999989	35.78491211	-6.986442089	-7.115947723	1.0
21 	0	-443.7049866	2.861999989	36.98337555	-6.674753189	-7.3098526	1.0
22 	0	-443.7049866	2.861999989	37.36351013	-6.562358856	-7.398133755	1.0
23 	0	-443.7049866	2.861999989	37.08702087	-6.591294765	-7.42535305	1.0
[RightFoot]
20 	0	-444.2770081	-29.83799934	-19.65058136	-7.667742729	7.144237995	1.0
21 	0	-444.2770081	-29.83799934	-20.59203529	-8.413024902	7.783573627	1.0
22 	0	-444.2770081	-29.83799934	-21.21348381	-9.158291817	8.118109703	1.0
23 	0	-444.2770081	-29.83799934	-21.5667305	-9.858818054	8.286928177	1.0
[RightToeBase]
20 	0	-87.28699493	107.1060028	-8.139472008	-1.551102628e-06	6.019698731e-07	1.0
21 	0	-87.28699493	107.1060028	-8.204690933	1.224890093e-05	2.246575832e-06	1.0
22 	0	-87.28699493	107.1060028	-8.172492027	-9.246356058e-06	1.718398948e-06	1.0
23 	0	-87.28699493	107.1060028	-8.093117714	1.621243939e-08	-2.341150775e-06	1.0
[EndOfFile]
